Coordinates
version=1
nRows=9
nColumns=36
inDegrees=yes

Units are S.I. units (second, meters, Newtons, ...)
If the header above contains a line with 'inDegrees', this indicates whether rotational values are in degrees (yes) or radians (no).

endheader
time	pelvis_tilt	pelvis_list	pelvis_rotation	pelvis_tx	pelvis_ty	pelvis_tz	hip_flexion_r	hip_adduction_r	hip_rotation_r	knee_angle_r	knee_angle_r_beta	ankle_angle_r	subtalar_angle_r	mtp_angle_r	hip_flexion_l	hip_adduction_l	hip_rotation_l	knee_angle_l	knee_angle_l_beta	ankle_angle_l	subtalar_angle_l	mtp_angle_l	lumbar_extension	lumbar_bending	lumbar_rotation	arm_flex_r	arm_add_r	arm_rot_r	elbow_flex_r	pro_sup_r	arm_flex_l	arm_add_l	arm_rot_l	elbow_flex_l	pro_sup_l
      1.28333330	     -6.82151869	     -0.13475772	      4.00284829	     -0.05500559	      1.25701933	     -0.06708403	      4.29396971	      1.25699649	     -2.39628505	      1.14065131	      0.01990812	      2.47308674	    -11.23418487	     -7.49999987	      2.73031444	     -0.06337912	     -3.80012082	      0.89036267	      0.01553976	      5.63121194	     -2.20217208	     -7.49999987	      4.13182929	     -1.27829985	      2.52540544	      2.55747772	     -9.97881915	      1.89050625	     24.09503474	    102.42074364	      2.72664452	    -11.67260142	     16.61569158	     21.00861299	    101.44361482
      1.30000000	     -6.95589005	     -0.15155672	      4.13459478	     -0.05489953	      1.25681290	     -0.06702325	      4.43820137	      1.25618451	     -2.37303858	      1.15904448	      0.02022914	      2.35816886	    -11.53131814	     -7.49999987	      2.91159788	     -0.05939984	     -3.69466604	      0.94876211	      0.01655902	      5.60318344	     -2.19504126	     -7.49999987	      4.24763846	     -1.25829810	      2.44398656	      2.54896049	     -9.97849703	      2.04028451	     24.22521254	    102.23903597	      2.78887699	    -11.56197639	     16.06448160	     21.45304003	    101.74960905
      1.31666670	     -6.97976624	     -0.16816575	      4.19097806	     -0.05456565	      1.25953641	     -0.06735536	      4.46294335	      1.26317596	     -2.38338848	      1.22049636	      0.02130168	      2.33768712	    -11.61783264	     -7.49999987	      2.93097566	     -0.06985892	     -3.68039967	      0.98709242	      0.01722801	      5.54710042	     -2.23643681	     -7.49999987	      4.27813634	     -1.23198871	      2.37991301	      2.59819604	     -9.98563800	      2.22840214	     24.11401515	    102.05806691	      2.97243897	    -11.48230081	     16.22121804	     21.48803273	    101.76937161
      1.33333330	     -7.01900020	     -0.17951437	      4.23380941	     -0.05440795	      1.25933040	     -0.06719643	      4.49570086	      1.27890265	     -2.40401146	      1.28488702	      0.02242551	      2.31444435	    -11.66190461	     -7.49999987	      2.97769293	     -0.07825934	     -3.65947614	      1.00880354	      0.01760694	      5.57402628	     -2.11235160	     -7.49999987	      4.35208285	     -1.21309424	      2.36948493	      2.57930014	     -9.91343620	      2.02401613	     24.08565764	    102.17187597	      3.06668982	    -11.38692785	     16.38622310	     21.40605485	    101.86139185
      1.35000000	     -7.08489455	     -0.18658223	      4.31501743	     -0.05421474	      1.25937562	     -0.06750389	      4.56604456	      1.26444901	     -2.47272848	      1.28816476	      0.02248272	      2.31769722	    -11.70172214	     -7.49999987	      3.02495452	     -0.06380311	     -3.50954235	      1.01531611	      0.01772061	      5.47455149	     -2.33041764	     -7.49999987	      4.38943603	     -1.17832289	      2.21502593	      2.73598130	     -9.91056541	      2.29904240	     23.95307509	    102.12414174	      3.03765136	    -11.32811057	     16.35209121	     21.47324774	    101.71438691
      1.36666670	     -7.15241400	     -0.17756306	      4.31194752	     -0.05429013	      1.25894864	     -0.06723422	      4.65303064	      1.25056943	     -2.52115746	      1.25819357	      0.02195962	      2.31760338	    -11.67574742	     -7.49999987	      3.09308747	     -0.04227913	     -3.46793978	      1.02782521	      0.01793893	      5.53836550	     -2.24333955	     -7.49999987	      4.44258922	     -1.17233402	      2.17358209	      2.85887955	     -9.87854131	      2.41487502	     23.83594458	    102.21246162	      2.99546866	    -11.26157021	     16.28917189	     21.48367812	    101.81956189
      1.38333330	     -7.22435430	     -0.18073988	      4.33014120	     -0.05402947	      1.25632788	     -0.06743906	      4.76170468	      1.24837026	     -2.49199952	      1.26927176	      0.02215297	      2.28844798	    -11.76093746	     -7.49999987	      3.17466128	     -0.02795927	     -3.52666846	      1.03665630	      0.01809307	      5.67334222	     -1.97595015	     -7.49999987	      4.48284066	     -1.14869140	      2.24098951	      2.83046917	     -9.85029380	      2.20701717	     23.84772573	    101.97864330	      3.07536292	    -11.21291710	     16.55721870	     21.36728496	    101.73302611
      1.40000000	     -7.24476854	     -0.19881423	      4.45526315	     -0.05398477	      1.25897005	     -0.06729241	      4.77083303	      1.25376249	     -2.61809322	      1.27386711	      0.02223318	      2.32971860	    -11.78121033	     -7.49999987	      3.23347065	     -0.03440711	     -3.34565631	      1.06711909	      0.01862474	      5.69861003	     -2.04391383	     -7.49999987	      4.50506036	     -1.12434163	      2.03650473	      2.98960798	     -9.81644410	      2.39552723	     23.67295521	    102.28432108	      3.01461492	    -11.13646567	     16.43234393	     21.49498624	    101.70674936
      1.41666670	     -7.23467201	     -0.19557315	      4.47770486	     -0.05965150	      1.26141384	     -0.06414337	      4.79576385	      1.25871523	     -2.61652209	      1.26406531	      0.02206210	      2.33037642	    -11.78041255	     -7.49999987	      3.25457089	     -0.04288606	     -3.34452014	      1.05640361	      0.01843772	      5.70127174	     -2.04391244	     -7.49999987	      4.50639884	     -1.11930678	      2.03665054	      2.98977394	     -9.81796004	      2.39573397	     23.67367670	    102.28427938	      3.01418005	    -11.13060515	     16.43313813	     21.49727469	    101.70671635
